<svg xmlns="http://www.w3.org/2000/svg" viewBox="0 0 777 467"><defs><style>.cls-1{fill:#40a6ff;}.cls-2{fill:#fff;stroke:#40a6ff;stroke-miterlimit:10;stroke-width:10px;}</style></defs><g id="Calque_2" data-name="Calque 2"><g id="Calque_2-2" data-name="Calque 2"><path class="cls-1" d="M777,334a133.06,133.06,0,0,0-90.25-126C681.55,103.31,595,20,489,20A197.56,197.56,0,0,0,337.05,91.06,155.12,155.12,0,0,0,124.68,205.21,133,133,0,0,0,158,467H658v-.73A133,133,0,0,0,777,334Z"/><path class="cls-2" d="M757,319a133.06,133.06,0,0,0-90.25-126C661.55,88.31,575,5,469,5A197.56,197.56,0,0,0,317.05,76.06,155.12,155.12,0,0,0,104.68,190.21,133,133,0,0,0,138,452H638v-.73A133,133,0,0,0,757,319Z"/></g></g></svg>